<svg version="1" xmlns="http://www.w3.org/2000/svg" width="346.667" height="346.667" viewBox="0 0 260.000000 260.000000"><path d="M162 10.5c0 .8-.4 1.5-.9 1.5-.9 0-2.4 3-1.8 3.6.2.2 1.5-1 2.9-2.6 1.9-2.2 2.2-3 1.2-3.4-.8-.3-1.4.1-1.4.9z"/><path d="M150.4 16.2c-3.5 7.1-6.4 15.6-6.4 18.5 0 1-.8 4.6-1.9 7.9-1 3.2-2.4 8.1-3 10.9-.7 2.7-1.7 5.5-2.3 6.2-3.5 4.3-5.5-1.8-7-21.3-.7-9.3-1.4-16-1.6-14.9-.8 3.9-4.3 10.5-6.1 11.5-2.6 1.4-2.7 1.3-2.8-1.3-.1-1.2-.5-3.5-.9-5.1-.4-1.6-.3-2.7.2-2.3.9.5 1.1-9 .2-9.9-2.2-2.1-6.8 5.1-6.8 10.6 0 1.7-.5 4.1-1.1 5.2-.6 1.1-1.3 9-1.5 17.6-.2 8.6-.6 15.7-.8 15.9-1.2 1.2-16.8 2-21.5 1.1-5.2-.9-20.3-7.7-21.5-9.6-.3-.5-3.4-1-7-1.1-4.8-.1-6.8.2-8.1 1.5-3.3 3.4-4.7 6.4-4.1 8.9.6 2.4 10.9 11.8 15.2 13.7 1.8.9 4.6 5.2 4.9 7.8 1.3 8.6 1.9 11 2.7 11 .7 0 .8-1.7.3-4.8-1.2-7.8-1.1-9.7.5-9.3.8.2 2.6.6 4 .8 2.3.4 2.4.3.8-1-1-.8-1.8-2-1.8-2.6 0-.7-.4-1-.9-.6-.5.3-1.2.1-1.6-.4-.3-.6-1.1-.8-1.9-.5-.7.3-1.3-.2-1.3-1.1C67.3 78 78 74 82.2 74c2.5 0 9 4.4 8 5.5-.4.5-.1.5.6.1.9-.6 2.6.5 4.8 3 2.5 2.7 3.8 3.4 4.3 2.6.4-.7 1.5-1 2.5-.6 1.4.5 1.4.9.4 2.3-1.1 1.4-1.1 1.4.2.4 1.2-.9 2.5-.8 5.9.7 4.8 2.2 10.1 5.8 10.1 6.9 0 .3-2 1.4-4.4 2.3-4 1.5-4.5 1.5-6 0-1.6-1.6-1.7-1.6-1 .1.3.9 2.7 2.7 5.3 3.8 2.5 1.2 4 2.3 3.4 2.6-.7.3-1.3 1.3-1.3 2.3 0 1.8-2.5 3.4-4 2.5-.5-.3-1.2 0-1.6.6-.5.8-.3.9.6.4.9-.6 1.1-.4.5.4-.5.9-2.1 1.1-5.4.6-2.5-.4-5.9-.9-7.6-1.2-1.6-.2-7.6-.7-13.2-1.2-7.6-.6-10.8-1.2-12.2-2.5-1.1-1-2.5-1.5-3.1-1.1-.6.4-2.2-.1-3.6-1-1.9-1.2-2.5-2.3-2.2-4.5.2-1.9-.5-3.8-2-5.4L59 91l-5 2c-6.5 2.6-8.3 2.6-7.5.1 1.1-3.7 1.2-11.3.1-11.7-.7-.2-1.1-2.3-1.1-4.6s-.5-4.3-1.2-4.5c-2.1-.7 2.9-18.4 6.2-21.7 1.2-1.2 2.6-3.3 3-4.4.3-1.2 1-2 1.3-1.8.4.2 1.6-.2 2.7-1 1-.8 1.5-1.4 1-1.4-.4 0 0-.9 1-2s2.4-2 3.2-2c.8 0 1.2-.4.8-1-.5-.8 2.9-2.7 11.2-6 2-.7 5.7-1.1 9.3-.8 7.6.5 5.7-.7-3.4-2.3-15.3-2.6-26.6.7-37.9 11.1-8.8 8.1-13.9 15.4-16.7 23.4-2.6 7.8-2.5 10 .9 19.9 5.4 15.6 7.3 18.9 12.7 21.8 2.7 1.5 5.1 3.5 5.3 4.5.3 1.7 2.7 7.3 6.8 16.1 2 4.2 3.8 4.7 7.9 2.2 3.6-2.2 3.9-2 4.6 2.6.2 1.2 1.2 2.1 2.6 2.3 1.2.2 2.7 1.2 3.2 2.3.6 1 1.9 1.9 3 1.9 1.9 0 3.5 2.2 5.1 6.9.8 2.4.9 2.3.6-.6-.4-3.8-.5-3.8 3.2-1.9 2.7 1.4 6.4 1.2 8.6-.5.6-.4 2 .6 3.4 2.6l2.3 3.4-2.2 3.5c-2 3.3-2.1 4.6-1.9 20.8.2 16.6.1 17.6-2.5 24.8-4.9 13.7-5.8 19.3-5.1 33 .8 16.1 2.2 27.1 3.6 28.5.9.7 1 .3.6-1.5-.5-1.9-.1-2.9 1.5-3.9s2.2-1 2.8-.1c.4.7 2 1.1 3.7.8 2.2-.3 2.9 0 2.9 1.3 0 1.8-4.4 3.3-7 2.3-.8-.3-1.7-.1-2.1.5-.7 1.2 4.4 1.4 11.4.3l4.3-.7-3.3-3c-1.9-1.6-3.7-2.9-4-2.8-.3.1-.5-.8-.4-2 .2-2.5 3.7-2.7 6.1-.3 1.8 1.9 1.8 2.3-.3 3-1.5.4-1.5.5.2.4 3.5-.1 3.8.2 2.4 1.9-1.3 1.6-1.2 1.7.4.4 1.8-1.5 1.7-3.2-.9-8.5-2.9-6 1.7-4.3 4.9 1.7 1.9 3.7 4.6 5.3 3.2 1.9-.4-.9-.8-2.4-.9-3.2-.1-.9-.5-2.1-1-2.8-.5-.8.1-1.2 2-1.2s2.4-.3 1.8-1.3c-.5-.7-.1-.4.9.6.9 1.1 1.8 1.6 1.8 1.3.5-2.3.4-3.3-.4-4.4-.5-.6-.6-1.2-.2-1.2.4 0 0-1.2-1-2.6-.9-1.4-1.4-2.8-1.1-3.2.3-.3.6-.2.6.2s.6.1 1.4-.6c.7-.7 1.1-2 .8-2.8-.5-1.3-.3-1.3 1-.2 1.7 1.3 3.5.1 2.4-1.6-.3-.5.1-.9.9-.9s1.2.3 1 .7c-.2.3.5.6 1.6.6 1 0 1.9-.5 1.9-1 0-.6.6-.4 1.2.2 1 1 1 1.5-.2 2.2-.8.5-1.1 1-.6 1 .6 0 .2.6-.8 1.3-1.8 1.3-1.8 1.5.4 3.5 1.2 1.1 2.9 1.8 3.6 1.5 1.2-.4 1.2-.7-.1-1.7-1-.7-1.4-2.1-1.1-3.6.2-1.4.5-2.8.5-3.1.1-.4.9-.6 1.9-.5.9 0 1.6-.5 1.4-1.1-.3-1.8 1.3-1.6 2.9.4 1.2 1.4 1.2 1.6-.1 1.1-1.4-.4-6.4 4.1-5.5 5 .4.4 6.7-3.8 7.7-5.3.4-.5.9-.3 1.2.5.3.8 1.3 3.5 2.1 6 .9 2.4 2.3 5.2 3.1 6.1 2 2.2 1.3 3.4-3.4 5.9-2.2 1.2-2.7 1.8-1.3 1.4 1.9-.5 8.4-4.4 10-5.9.2-.3-.1-1-.7-1.7-1.6-2-2.1-15.6-.6-16.2.7-.3 1.8.8 2.6 2.4 1.3 3.1 3.8 4.3 5.9 2.8 1.2-.7 1.1-.9-.1-.7-.8.1-2.2.1-3 0-1.3-.1-1.3-.2 0-1.1 1.6-1 1.7-.9-3-3.8-2.3-1.4-2.9-2.2-1.7-2.2 2 0 2.2-1.1.5-2.8-.9-.9-.9-1.2-.1-1.2.7 0 1.5.5 1.8 1 .8 1.3 5.7-4.7 7.5-9.1 1-2.2 1-3.6.3-4.8-1.3-2 .5-5.1 3-5.1 2.2 0 4.2 3.9 2.8 5.3-1.3 1.3-1.4 6.1-.2 10.5.8 2.7.7 3.4-1.1 4.3-1.5.8-1.7 1.4-.9 2.2.9.9 1.4.8 2-.2.7-1.1 1.1-.9 2.1.9 1.3 2.5.1 4-3.3 4-1 0-1.5.5-1.2 1 .4.7 1.3.7 2.6 0 1.6-.9 1.9-.7 1.9 1 0 1.2.7 5.2 1.6 9 1.2 5.3 2.1 7.2 4.1 8.6 2.6 1.6 2.7 1.6 4.5-.5 1.2-1.6 1.7-3.8 1.7-7.1-.1-2.6.1-5.3.5-5.8.7-1.3-1.1-5-3.4-6.9-1.3-1.1-1.3-1.2.4-1.3 1.6 0 1.8-.6 1.1-5.6-.5-4-.3-5.4.4-5 .6.4 1.1.1 1.1-.8 0-.8.4-1.6.8-1.8 1.2-.5 5.5-7.8 4.5-7.8-.4.1-2 1.9-3.5 4-1.5 2.2-3.1 4-3.6 4-.4 0-1.6-2-2.6-4.5-1.1-2.5-2.6-4.5-3.4-4.5-.8 0-1.2-.6-.9-1.3.3-.8.1-2-.3-2.7-1-1.6 1-5 2.9-5 1.1 0 1.1-.4-.2-1.8-1-1-1.7-2.5-1.7-3.3 0-1.2-.2-1.1-1 .1-.5.8-1 1-1 .5 0-1.3 1.3-3.1 2.5-3.6 2.5-.9 9.8-10.1 13-16.3 1.9-3.7 3.6-6.4 3.6-5.9.1.4.3 2.9.4 5.5.1 2.7.9 5.3 1.9 6.3 1.8 1.8 2.3.1.6-2.5-.6-1-.3-2 1-3.2 1.1-1 2.3-1.8 2.8-1.8 1.9 0 3.4-5.7 2.2-7.9-1.7-3.2-2.2-2.5-1.5 1.8.4 2.6.2 4.1-.5 4.6-2.1 1.3-2.9-1.7-2.3-7.7.4-4 .2-5.8-.6-5.8-.6 0-1.1 1.9-1.1 4.7l-.1 4.8-1.8-5.5c-1-3-2.2-7.1-2.5-9-.3-1.9-1.8-4.6-3.1-5.9-1.4-1.3-2.8-3.4-3.1-4.7-.3-1.3-1-2.4-1.5-2.4s-.6-.7-.3-1.5c.4-.8-.6-3.1-2-4.9-3.3-4.4-3.3-5 .4-4.3 1.7.4 3 .4 3 .1 0-1.8-2.4-4.3-5-5.3-2.8-.9-2.9-1.2-1.8-3.1.7-1.1 1.4-1.6 1.6-1.1.5 1.4 3.2.1 3.2-1.5 0-.8.9-1.4 2-1.4s2-.5 2-1c0-.6-.7-1-1.5-1s-1.5-.4-1.5-.9-1.2-1.1-2.7-1.3c-1.6-.3-3.6-.9-4.6-1.3-1.7-.7-1.8-.3-1.3 5.6.3 3.5 1.2 9.1 2 12.4 2.7 10.3 1.9 12.7-2.5 8-1.3-1.3-3.1-2.5-4-2.5-.9 0-1.9-.7-2.3-1.5-.3-.8-.1-1.5.5-1.5.9 0 .6-8.8-.5-14.5-.3-1.1-.5-2.6-.5-3.3-.1-.6-.4-1.2-.8-1.2-1.2 0-.2 10.4 1.1 11.2.8.6.8.8 0 .8-.6 0-1.4 2.2-1.6 4.9-.3 2.8-1.3 6.2-2.4 7.8l-1.9 2.8-.3-2.5c-.2-1.4-.8-3-1.3-3.7-.6-.6-.8-6.2-.5-13.3.5-11.5.2-15-1.3-15-.3 0-.7 5.2-.8 11.7-.1 8-.6 11.8-1.4 12.4-.9.5-1 1.2-.3 2.1.6.7 1 3.7 1 6.7-.1 6.4-2.1 8-3.9 3.2-1.3-3.6-3-4.2-2.2-.8.4 1.6-.6 4.2-3.3 8.8-3.1 5.1-3.7 6.7-2.8 7.9.9 1.3.9 1.3-.5.3-1.9-1.5-2.4-8.3-.7-8.3.9 0 .9-.3 0-1.2-1.8-1.8-1.6-7.8.3-7.8.8 0 1.5-.5 1.5-1.1 0-.5-.5-.7-1-.4-2.3 1.5.4-6.9 3.2-9.7 1-1 1.8-2.4 1.8-3.1 0-.8-.4-.7-1 .3-.8 1.1-.9.8-.6-1.4.3-1.6 1.3-3.7 2.2-4.7.9-1 1.4-2.5 1-3.4-.4-1.1-.2-1.4.6-.9.8.5.9.2.5-.9-.3-.9-.2-1.9.4-2.3.5-.3.7-1.4.4-2.5-.5-1.4-.1-1.9 1.2-2 1 0 1.3-.3.7-.5-.6-.3-4.5.4-8.5 1.6-10.5 2.9-13.6 2.6-18.3-1.3-2.8-2.4-3.8-3.9-3.3-5.1.5-1.2 1.3-1.5 2.6-1.1 1.2.3 2.1 0 2.5-1 .3-.8 0-1.5-.7-1.5-1.6 0-4-3.8-3.2-5 .4-.6 1.8-1 3.1-1 1.4 0 5.4-1.1 8.9-2.5 6.1-2.5 6.7-2.5 15.1-1.5 7 .9 8.9.8 9.6-.2.6-.9.8-.3.5 1.7-.2 1.6-.2 2.4 0 1.7.3-.6 1.4-1.2 2.6-1.2 3.5 0 21 4.9 23.6 6.7 1.3.8 2.1 1.1 1.8.5-.4-.5.4-.7 1.8-.4 1.4.2 2.8.8 3.1 1.3.3.5 1 .9 1.5.9.6 0 .8-.3.6-.8-.3-.4.8-.7 2.3-.7 1.6 0 3.2.3 3.6.7.4.5 1.4.8 2.3.8 1.4 0 1.4-.2.1-1.1-1.1-.8-.5-.9 2.4-.5 4.4.6 6.4 2.8 5.9 6.5l-.4 2.6 1.3-2.3c.8-1.2 1.7-2 2.1-1.6.3.4.5-.7.4-2.5-.1-1.7-.6-3.1-1.2-3.1-.5 0-.3-.4.5-.9.8-.6 1.7-.8 2.1-.5.4.2 1.9 0 3.3-.6 2.3-.8 4.3-4 5-7.5.1-.6.5-1.5.9-2.2.5-.8-.7-1.3-4-1.8-2.7-.3-6.1-1-7.8-1.5-1.6-.5-4-.7-5.2-.4-3.3.9-18.5-1.5-20.8-3.2-1.9-1.4-1.9-1.6-.2-2.8.9-.7 1.7-2.2 1.7-3.4 0-1.1 1.6-3.9 3.5-6.2 1.9-2.3 3.5-4.4 3.5-4.6 0-.6-6.4 3.9-6.8 4.8-.2.5-1.3.8-2.4.8-1.9 0-2-.2-.7-1.8 2.5-2.9 7.1-12.1 6.5-13-.6-1 3-5.2 4.5-5.2.6 0 .8-.4.4-.9-.3-.5-.1-1.2.5-1.6.5-.3 1-.1 1 .5s.5.8 1 .5c2.8-1.7-6.4-7.1-10.1-6-1.8.6-14.1 16.2-16.7 21.1-.9 1.7-1.9 2-4.9 1.8-2.1-.2-4.9-.3-6.2-.3-1.8-.1-2.2-.5-1.5-1.9.4-.9 1.1-4.4 1.5-7.7 1.1-8.3 2-12.8 2.9-14 .4-.6 1-2.2 1.4-3.8.5-2 .3-2.7-.9-2.7-.8 0-1.5.6-1.5 1.4 0 1.5-3.2 2.7-4.8 1.7-.6-.3-1.2-2-1.5-3.6l-.4-3-.2 3.3c0 2.1.4 3.5 1.4 3.8 2.1.9 1.9 2.4-.4 2.4-1.2 0-2-.9-2.4-2.6-.6-3.4 1.5-11.8 2.8-10.7.6.4-.3-.7-2-2.6-1.6-1.9-2.5-3.1-1.8-2.8.7.5.9 0 .6-1.3-.8-3.2-1.7-2.4-4.9 4.2zM122.3 41c-.9 1.6-2.1 3-2.6 3s-.4-.7.3-1.5c.6-.8.9-1.8.6-2.4-.3-.5 0-1.2.6-1.4 2.6-1.1 2.9-.6 1.1 2.3zm1.7 2.9c0 .5-.8 1.5-1.7 2.2-1.6 1.2-1.7 1.2-.6-.2.7-.9 1-1.9.6-2.2-.3-.4-.1-.7.5-.7.7 0 1.2.4 1.2.9zm1.4 6c.3.5-.5 1.1-1.9 1.3-2.4.5-3.2-.2-1.8-1.5.9-1 3.1-.9 3.7.2zm.6 9.9c0 4.1.5 5.5 3.5 8.9 1.9 2.3 3.5 4.7 3.5 5.4 0 .7.9 2.3 2.1 3.5 2 2.1 2 2.3.2 3.2-1 .5-4.1 1.7-7 2.5-6.8 2-7.3 1.3-7.2-9.9.1-5.6-.3-9-1-9.2-.6-.2-1-2-1-4 .1-2.4.3-2.9.6-1.4.2 1.2.8 2 1.3 1.7.4-.3.6-1.4.3-2.4-.4-1.8.5-2.4 4-3 .4 0 .7 2.1.7 4.7zm44.2-.6c-.9.9-1.5.9-2.4 0-.9-.9-.7-1.2 1.2-1.2s2.1.3 1.2 1.2zM63.4 61.1c.2.2.9 1.3 1.5 2.4 1.2 1.9 1.2 1.9.8-.2-.5-2.1-.4-2.2 2.2-.9 1.4.8 4.3 2.8 6.5 4.5 2.1 1.7 4.3 3.1 4.7 3.1.5 0 .9.4.9.9 0 .4-2.1 1.4-4.7 2.1-2.7.7-5.6 1.4-6.6 1.7-1.5.4-1.8.1-1.2-1.6.7-2.4-.2-6.1-1.6-6.1-.5 0-.7 1.7-.3 4 .6 3.9.6 4-2.2 4-3.9-.1-6.6-2.2-5.7-4.5.4-1.3.3-1.6-.5-1.1-1.6.9-1.6-6.6-.1-8.1 1-1 5.5-1.1 6.3-.2zm122.5 4.8c.8 1.3.6 2.3-.5 3.7-1.5 1.9-1.5 1.9-.9 0s.5-1.9-1.5-.1c-1.6 1.4-1.7 2-.8 2.7.7.4.9.8.3.8-3 0-3.6-1.7-1.8-5.3 2-4.1 3.7-4.6 5.2-1.8zM65 78c0 .5-.5 1-1.1 1-.5 0-.7-.5-.4-1 .3-.6.8-1 1.1-1 .2 0 .4.4.4 1zm41.5 6c.8 1.3-.5 1.3-2.5 0-1.3-.8-1.3-1 .2-1 .9 0 2 .4 2.3 1zm64.7 49.8c-1.6.4-3.4-1.7-2.5-3.1.3-.4 1.3 0 2.3 1 1.4 1.5 1.5 1.9.2 2.1zm-7.3 1.5c.1.5-.3.5-.9.2-.5-.3-1-.4-1-.1 0 .2-.3 1.2-.7 2.2-.5 1.3-.3 1.6 1 1.1 2.5-.9 4 5.1 1.9 7.6-1.5 1.7-1.7 1.5-2.8-2.3-.7-2.2-1.7-4.7-2.4-5.5-1.2-1.5.1-5.2 2.4-6.7 1-.6 2.3 1.2 2.5 3.5zm17 2.2c2.2 3.8 3.1 6.8 3.1 9.9 0 6-1.8 14.3-3.5 16-.8.7-1.2 1.6-1 1.8.3.2-1.1 2-3 3.8-3 2.9-3.5 3.1-3.5 1.4 0-1.1-.5-2.5-1.2-3.2-1.2-1.2-1.2-1.2 4.1-1.6.8-.1 1.5-1.3 1.7-2.8.1-1.4 1-3.8 1.9-5.2 1-1.4 1.4-2.6.9-2.6-.4 0 .1-.6 1.1-1.4 1.7-1.2 1.8-1.6.5-3.2-1.2-1.4-1.2-1.6-.1-.9 1.2.7 1.3.1.7-3.4-.7-4.4-3.1-9.1-4.7-9.1-.5 0-.9-1.1-.9-2.5s.2-2.5.4-2.5 1.8 2.5 3.5 5.5zm-4.9 0c.7.9.8 1.5.2 1.5-.5 0-1.2-.7-1.6-1.5-.3-.8-.4-1.5-.2-1.5s.9.7 1.6 1.5zm-7 4.1c0 .6-.7 1.4-1.5 1.8-1.2.4-1.5-.3-1.5-3.2.1-3.5.2-3.6 1.5-1.8.8 1.1 1.5 2.5 1.5 3.2zm9.4-1c.9.3 1.6 1 1.6 1.5 0 1.4-2.6 1-4-.6-1.3-1.6-.3-2 2.4-.9zm-25.1 1.9c-.3.9-.8 1.4-1 1.1-.3-.3-.2-.9.2-1.5.9-1.6 1.5-1.3.8.4zm3 0c-.3.9-.8 1.4-1 1.1-.3-.3-.2-.9.2-1.5.9-1.6 1.5-1.3.8.4zm.1 4.1c.3.8.2 1.2-.4.9-.6-.3-1-1-1-1.6 0-1.4.7-1.1 1.4.7zm.1 2.5c1.7.6 2.4 1.3 1.7 1.6-1.6.6-6.2-2.3-6.2-4 0-.9.2-.9.8 0 .4.6 2.1 1.7 3.7 2.4zm30.1 6.6c-.8 6.2-4.6 13.8-9.5 19.3-3.9 4.3-4.1 4.4-4.1 1.9 0-1.8 1-3.5 3.3-5.2 4-3 8.3-10.8 9.1-16.2.3-2.2.5-4.1.6-4.3 0-.1.3-.2.6-.2.4 0 .4 2.1 0 4.7zm-28.6-1.5c0 1.2-.5 1.6-1.7 1.2-1.7-.5-1.7-.5 0 .6.9.6 1.5 1.5 1.2 2-.7 1.2-4.7.3-5.7-1.2-.4-.7-.8-.9-.8-.3 0 1.2-2-1.6-2-2.9 0-.5.6-.3 1.4.3 1.1.9 1.7.9 2.8-.3 1.8-1.9 4.8-1.6 4.8.6zm-27 5c0 .4-.9.3-2-.4s-2-1.9-2-2.7c0-1.1.5-1 2 .4 1.1 1 2 2.2 2 2.7zm37-1.3c-1.2 2.3-1.8 2.5-4 1.1-1-.6-1.1-1-.2-1 .6 0 1.5.1 1.8.2.3.2 1-.5 1.6-1.5 1.4-2.6 2.2-1.4.8 1.2zm-20.5 7.1c-.3.5-1.2 1-1.8 1-.7 0-.6-.4.3-1 1.9-1.2 2.3-1.2 1.5 0zm-9 7.2c.9.9-2.3 3-3.5 2.3-1.8-1.1-1.1-3.5 1-3.2 1.1.2 2.2.6 2.5.9zm11 6.7c-.3 1.2-1.3 2.1-2.1 2.1-.9 0-1.2-.5-.8-1.3 2.3-4 4.1-4.6 2.9-.8zm22 2.1c.3.5.1 1-.4 1-.6 0-1.1-.5-1.1-1 0-.6.2-1 .4-1 .3 0 .8.4 1.1 1zm-25.1 3.4c-2.1 1.5-3 1.4-1.9-.3.3-.6 1.4-1.1 2.3-1.1 1.3 0 1.3.2-.4 1.4zm5.5 5.3c.1 1.4-.5 2.3-1.4 2.3-.8 0-1.5.4-1.5.9 0 1.1 2.5 2.1 5.1 2.1 1.3 0 1.9.7 1.9 2.1 0 1.1-.4 1.8-.8 1.5-1.2-.7-8.6 7.1-10.6 11.1-1 2-1.4 4.3-1 5.8.6 2.3.4 2.5-2.9 2.5-2.1 0-4-.7-4.8-1.8-1.3-1.6-1.3-1.6.6-.2 1.9 1.4 1.9 1.4.6-.3-.7-.9-1.9-1.7-2.6-1.7-1.8 0-4.2-3.1-4.8-6.5-.5-3-.5-3 3.6-2.8 2.3.1 4.2.2 4.2.3 0 .1 1.5.3 3.3.6 3.6.4 4.3-1 1.2-2.6-1.1-.6-2-1.6-2-2.3 0-.7-.9-2-2-3-1.2-1-1.8-2.3-1.4-2.9.4-.7.3-.8-.4-.4s-1.3.1-1.4-.6c0-.7-.2-1.8-.2-2.3-.1-.6-.5-1.5-.9-2.1-.4-.7.2-1.4 1.4-1.7 1.4-.4 1.8-.2 1.1.6-.5.7-.6 2.1-.1 3.2.7 1.9.8 1.9.8-.1.1-2.4 2-3.5 4.8-2.8 1 .3 3.4-.6 5.3-1.9 3.8-2.5 4.8-1.9 4.9 3zm20.4 0c-.7.2-1.9.2-2.5 0-.7-.3-.2-.5 1.2-.5s1.9.2 1.3.5zm-38.3 5.4c0 .9.6 1.9 1.4 2.2.8.3 2 1.5 2.6 2.6.9 1.7.8 2-.5 1.5-2.2-.9-7.7-6.5-7.1-7.2.3-.3.1-1.1-.6-1.9-1-1.2-.7-1.2 1.5-.2 1.5.7 2.7 2 2.7 3zm20 18.9c0 .5-.2 1-.4 1-.3 0-.8-.5-1.1-1-.3-.6-.1-1 .4-1 .6 0 1.1.4 1.1 1zm-40.5 24.9c-.6.5-2.5-1-2.5-2 0-.5.6-.4 1.4.3.8.7 1.2 1.5 1.1 1.7zm60.6-.6c-1 .9-1.1.8-.5-.6.3-1 .9-1.5 1.2-1.2.3.3 0 1.1-.7 1.8zm-69.1.3c0 1.4-.3 1.4-1.5.4-.8-.7-1.5-1.4-1.5-1.6 0-.2.7-.4 1.5-.4s1.5.7 1.5 1.6zm-3 5.3c0 .4-.9.7-2 .7-1.9 0-2.7-1.6-1.3-2.9.6-.7 3.3 1.1 3.3 2.2zm-12 5.2c-.7 1.1-1.4 1.8-1.7 1.5-.3-.3 0-1.2.7-2.1 1.8-2.1 2.3-1.9 1 .6z"/><path d="M179.5 160c-.9 1.6-1.3 3-1.1 3 .3 0 1.2-1.4 2.1-3 .9-1.7 1.3-3 1.1-3-.3 0-1.2 1.3-2.1 3zM133.7 207.2c.4.7.8 2.2.8 3.2 0 1.1.5 2.1 1.2 2.3.9.3 1-.4.3-2.6-.6-2.1-.5-3.1.3-3.5.7-.2.2-.5-1.1-.5-1.6-.1-2.1.3-1.5 1.1zM123 15c-.8 2.6-.7 4.1.2 3.2.6-.6.8-1.6.5-2.4-.3-.7-.6-1.1-.7-.8zM95 33.4c0 .2.7.7 1.6 1 .8.3 1.2.2.9-.4-.6-1-2.5-1.4-2.5-.6zM100.5 36.6c.6.5 2.6 2.3 4.5 3.9l3.5 3-2.5-2.8c-1.4-1.6-3.4-3.3-4.5-3.9-1.1-.6-1.5-.6-1-.2zM230.1 81.6c0 1.1.3 1.4.6.6.3-.7.2-1.6-.1-1.9-.3-.4-.6.2-.5 1.3zM78.3 84.5c-.9 1-.9 1.6-.2 2 1.4.9 2.2 0 1.7-1.8-.2-1.3-.5-1.3-1.5-.2zM228.6 85.5c-.3.8-.1 1.5.4 1.5.6 0 1-.7 1-1.5s-.2-1.5-.4-1.5-.6.7-1 1.5zM84 87.3c0 .4 1.1 1.1 2.3 1.6 1.3.5 4.5 2.8 7.1 5 5.6 4.8 7.9 5.4 4.2 1-1.4-1.7-2.6-3.4-2.6-3.8 0-.4-.8-1.8-1.9-3-1.4-1.6-2.8-2.1-5.5-1.9-2 .2-3.6.6-3.6 1.1zM154.8 88.2c-.9 1.1-2.8 2-4.3 2-1.4 0-2.8.4-3.1.9-.3.5.8.9 2.5.9 3.7 0 6.2.9 5.5 2.1-.3.5 0 .9.5.9.6 0 1.1-.7 1.1-1.5s.4-1.5 1-1.5c1.3 0 3 3.4 3 5.9 0 1.2.5 2.1 1.1 2.1 1.1 0 .9-1.6-.6-5.4-.7-1.7-.4-1.8 3.6-1.1 2.4.4 4.6 1 4.9 1.4.6.7 1.4.9 8.5 1.7 4.9.6 5.5.5 5.5-1.1 0-1-.3-1.6-.6-1.2-.3.3-2.2-.3-4.2-1.3-2.1-1.1-6.6-2.4-10.1-2.9-3.6-.6-6.7-1.5-7.1-2-.3-.6-1.1-.6-2-.1-2.1 1.3-2.8 1.2-3.2-.5-.2-1.1-.7-1-2 .7zM70.1 89c0 .8.4 2.4.9 3.5l.9 2v-2c0-1.1-.4-2.7-.9-3.5-.9-1.3-1-1.3-.9 0zM107.6 89.4c1 .8 2.1 1.2 2.4 1 .5-.6-2.1-2.4-3.4-2.4-.6 0-.1.6 1 1.4zM111.7 92c.3 1.1.9 1.7 1.5 1.4.5-.3 1.7 0 2.6.8 1.5 1.2 1.6 1.1.3-.5-.8-1-2.2-2.2-3.2-2.7-1.4-.8-1.6-.6-1.2 1zM140 92c-2.4 1.5-.7 1.8 2 .3 1.4-.7 1.8-1.3 1-1.3s-2.2.4-3 1zM128.8 93.7c.6.2 1.8.2 2.5 0 .6-.3.1-.5-1.3-.5-1.4 0-1.9.2-1.2.5zM186.1 97.6c0 1.1.3 1.4.6.6.3-.7.2-1.6-.1-1.9-.3-.4-.6.2-.5 1.3z"/><path d="M172.1 99.6c0 1.1.3 1.4.6.6.3-.7.2-1.6-.1-1.9-.3-.4-.6.2-.5 1.3zM185.5 100.9c-.3.5-.1 1.2.5 1.6.5.3 1-.1 1-.9 0-1.8-.6-2.1-1.5-.7zM162.1 102.6c0 1.1.3 1.4.6.6.3-.7.2-1.6-.1-1.9-.3-.4-.6.2-.5 1.3zM211.2 103c0 1.4.2 1.9.5 1.2.2-.6.2-1.8 0-2.5-.3-.6-.5-.1-.5 1.3zM185.9 104.2c-.7 1.6-.6 6.5.1 7.7.7 1.1 1 .2.8-3.2-.1-4-.4-5.5-.9-4.5zM112.5 106c-.3.5-.1 1 .4 1 .6 0 1.1-.5 1.1-1 0-.6-.2-1-.4-1-.3 0-.8.4-1.1 1zM211 108c0 1.9.3 2.1 1.2 1.2.9-.9.9-1.5 0-2.4-.9-.9-1.2-.7-1.2 1.2zM191 108.9c0 .5.7 1.5 1.7 2.2 1.5 1.3 1.5 1.2.4-.9-1.2-2.3-2.1-2.8-2.1-1.3zM211.8 114c.2 1.6.6 3 .8 3 .2 0 .4-1.4.4-3 0-1.7-.4-3-.8-3-.5 0-.7 1.3-.4 3zM146.1 115.6c0 1.1.3 1.4.6.6.3-.7.2-1.6-.1-1.9-.3-.4-.6.2-.5 1.3zM185.6 116.6c-.4 1.4-.5 2.8-.3 3.1.3.2.8-.8 1.1-2.3.4-1.4.5-2.8.3-3.1-.3-.2-.8.8-1.1 2.3zM183.3 123.5c0 .8.6 1.5 1.3 1.5.8 0 1.1-.6.8-1.5-.4-.8-.9-1.5-1.3-1.5s-.8.7-.8 1.5zM183.8 132.5c-.2 2.1.1 3.6.8 3.9.8.3 1.1-.8 1-3.5-.1-4.8-1.2-5.1-1.8-.4zM208 132.1c-1.6 3-.8 3.1 1.3.3 1-1.3 1.3-2.4.8-2.4-.6 0-1.5.9-2.1 2.1zM209.6 148.7c-.6 1.4-.5 1.5.5.6.7-.7 1-1.5.7-1.8-.3-.3-.9.2-1.2 1.2zM79.6 154.3c.3 1 .9 1.5 1.2 1.2.3-.3 0-1.1-.7-1.8-1-.9-1.1-.8-.5.6zM81 159.8c0 .7.7 2 1.5 2.8 1 1 1.3 2.4.9 4.1-.5 1.9-.4 2.4.6 1.8.9-.5 1-.2.6 1.3-.4 1.2-.1 3.2.6 4.4.7 1.3 1.3 2.5 1.4 2.8.1.6 1.3 3.9 2.5 6.8.5 1.3.7 2.7.4 3.2-.3.5-.1 1.1.4 1.4 1.7 1.1-.2-7.9-2.7-12.9-.8-1.6-1.6-4.6-1.8-6.7-.2-3.6-4.3-11.9-4.4-9zM207.9 164.2c-.1 1.3-.3 4-.4 6-.2 2.1 0 4 .5 4.3.4.3 1-2.2 1.2-5.6.1-3.3 0-6.3-.4-6.6-.5-.2-.8.6-.9 1.9zM196.5 169c-.4 1.7-.5 3.4-.2 3.6.3.3.8-.9 1.2-2.6.4-1.7.5-3.4.2-3.6-.3-.3-.8.9-1.2 2.6zM199.1 169c0 3.3.1 3.4 1 1.1.6-1.6.6-2.8-.1-3.5-.7-.7-1 .1-.9 2.4zM185.2 173.1c-1.3 2.7-3.4 6.2-4.6 7.7-1.3 1.5-2.8 4.3-3.4 6.2-1.1 3.5-1.1 3.5.6 1 .9-1.3 3.1-4.3 4.8-6.6 1.8-2.3 3.5-5.2 3.9-6.5.4-1.3 1.2-3 1.8-3.7.6-.8.6-1.6.1-2.1s-1.9 1.2-3.2 4zM188.6 182.2c-.8 1.3-1.7 3.4-2.1 4.8-.6 2.3-.5 2.2 1.2-.5 2.1-3.3 3.5-6.5 2.8-6.5-.3 0-1.1 1-1.9 2.2zM194.1 182.6c0 1.1.3 1.4.6.6.3-.7.2-1.6-.1-1.9-.3-.4-.6.2-.5 1.3zM207.1 183.2c0 .9-.4 2.5-.7 3.5-.5 1.7-.5 1.7.6 0 .6-1 .9-2.5.7-3.5-.4-1.5-.5-1.5-.6 0zM193.6 186.5c-.9 2.6-.7 3.2.5 1.2.6-1 .9-2.1.6-2.3-.2-.3-.7.2-1.1 1.1zM184 191.5c-.8.9-.8 1.5-.2 1.5 1.2 0 2.6-1.9 1.9-2.6-.2-.2-1 .2-1.7 1.1zM205 190.9c0 .5.5 1.3 1 1.6.6.3 1 .2 1-.4 0-.5-.4-1.3-1-1.6-.5-.3-1-.2-1 .4zM189.3 197.5c-3.6 7.1-4.7 10.5-3.6 10.5.5 0 1.9-2.5 3.2-5.5 1.3-3 2.8-5.5 3.3-5.5s.8 3.9.6 9c-.2 6.7 0 9 1 9 .6 0 1.2-.9 1.2-2.1 0-1.1.4-1.8.8-1.5.9.6-1.3-13.8-2.7-17.6-.7-2.1-1.1-1.7-3.8 3.7zM187.7 195.7c-.4.3-.7 1.1-.7 1.7 0 .6.5.5 1.2-.2.6-.6.9-1.4.7-1.7-.3-.3-.9-.2-1.2.2zM204.1 205.2c0 .9-.4 2.5-.7 3.5-.5 1.4-.4 1.5.5.7.7-.7 1.1-2.2.8-3.5-.2-1.3-.5-1.6-.6-.7zM202.7 211.7c-.4.3-.7 1.3-.7 2.2.1 1.3.3 1.3 1.1-.2 1.1-1.9.8-3.3-.4-2zM193 218c0 1.1-.4 2-1 2-.5 0-1 .4-1 .8 0 .5.7.9 1.5.9 1 0 1.5-1 1.5-2.9 0-1.5-.2-2.8-.5-2.8s-.5.9-.5 2zM197.3 220c0 2.5.2 3.5.4 2.2.2-1.2.2-3.2 0-4.5-.2-1.2-.4-.2-.4 2.3zM201 218.1c0 .5.5.7 1 .4.6-.3 1-.8 1-1.1 0-.2-.4-.4-1-.4-.5 0-1 .5-1 1.1zM200 223.4c0 .9.5 1.6 1 1.6.6 0 1-.4 1-.9 0-.6-.4-1.3-1-1.6-.5-.3-1 .1-1 .9zM190.8 224.5c-.3 1.1-.9 3.3-1.2 5l-.5 3 1.5-3.4c.8-1.8 1.3-4.1 1.1-5-.2-1.3-.4-1.2-.9.4zM200 226.5c-.1.5-.4 1.9-.6 3-.1 1.1-.5 3.1-.8 4.5-.5 1.8-.2 1.5.9-.9.9-1.8 1.4-4.3 1.2-5.5-.2-1.1-.5-1.7-.7-1.1zM196.1 228.6c0 1.1.3 1.4.6.6.3-.7.2-1.6-.1-1.9-.3-.4-.6.2-.5 1.3zM195.1 233.6c0 1.1.3 1.4.6.6.3-.7.2-1.6-.1-1.9-.3-.4-.6.2-.5 1.3zM127.2 236.6c-1.6 1.7-1.5 2.4.3 2.4.8 0 1.5.4 1.5 1 0 1.3-.6 1.3-3.2-.1-1.6-.8-1.9-.8-1.3.1 1 1.6 7.5 4.3 8.4 3.5.3-.4-.1-1.2-1-1.8-.8-.7-1.8-2-2.2-3.1-.6-1.5-.4-1.7 1.3-1.3 1.3.3 2 .1 1.7-.6-.5-1.5-4.1-1.6-5.5-.1zM120.5 240c.3.5.8 1 1.1 1 .2 0 .4-.5.4-1 0-.6-.5-1-1.1-1-.5 0-.7.4-.4 1zM196.1 240.2c-.1 1-.7 1.8-1.4 1.8s-1.3 1.2-1.2 2.8c0 1.9.5 2.8 1.7 2.8s1.4-.5.8-1.5c-.5-.9-.4-2.3.1-3.4.6-1 .8-2.3.5-3-.2-.7-.5-.4-.5.5zM123 244.4c-.8 1.1-1.3 2.4-1.2 2.8.1.5-.2.8-.8.8-.5 0-1 .7-1 1.6 0 1.1-.6 1.5-2 1.1-3.7-1-1.8 2.7 2.2 4.2 2 .7 2.8.7 3.1-.2.6-1.7-.3-3.8-1.4-3.1-.5.3-.6-.2-.3-1.1.5-1.2 1.4-1.5 3.1-1 1.6.4 2.2.2 1.8-.4-.3-.6 0-.8.8-.5.8.3 1.8.1 2.2-.5.3-.6.1-1.1-.5-1.1-.7 0-1-.6-.7-1.4.3-.8-.4-1.8-1.7-2.4-1.9-.8-2.5-.6-3.6 1.2zm3 0c0 .3-.4.8-1 1.1-.5.3-1 .1-1-.4 0-.6.5-1.1 1-1.1.6 0 1 .2 1 .4zM177.7 246.6c-1.4 1.4-.6 2.1 3.4 3.3 3.3 1 4.4 1 5.3 0 .8-.9.7-1.1-.6-.6-2.1.7-6.4-.6-6-1.9.4-1.1-1.2-1.7-2.1-.8zM191.5 251c-.3.5-.1 1 .4 1 .6 0 1.1-.5 1.1-1 0-.6-.2-1-.4-1-.3 0-.8.4-1.1 1zM112 251.7c0 .6.7 1.9 1.6 2.7 1.4 1.5 1.3 1.6-1 1.6-1.4 0-2.8-.5-3.1-1-.4-.6-1.1-.8-1.6-.5-2 1.3-.7 2.3 3.7 3 5.5.8 7.6-1 4.1-3.4-1.2-.8-2.5-2-2.9-2.5-.5-.8-.8-.7-.8.1zM94.5 254c.3.5.8 1 1.1 1 .2 0 .4-.5.4-1 0-.6-.5-1-1.1-1-.5 0-.7.4-.4 1zM189.6 254.5c-.9 2.6-.7 3.2.5 1.2.6-1 .9-2.1.6-2.3-.2-.3-.7.2-1.1 1.1z"/></svg>